<svg xmlns="http://www.w3.org/2000/svg" viewBox="0 0 800 800" width="100%" height="100%">
  <defs>
    <linearGradient id="bgGrad" x1="0" y1="0" x2="0" y2="1">
      <stop offset="0%" stop-color="#7397AB" />
      <stop offset="50%" stop-color="#C29D9C" />
      <stop offset="100%" stop-color="#F9B596" />
    </linearGradient>
  </defs>

  <!-- Background Circle -->
  <circle cx="400" cy="400" r="350" fill="url(#bgGrad)" />

  <!-- Ambient Stars / Particles -->
  <circle cx="200" cy="220" r="2" fill="#FFF" opacity="0.6" />
  <circle cx="250" cy="550" r="1.5" fill="#FFF" opacity="0.4" />
  <circle cx="650" cy="250" r="2.5" fill="#FFF" opacity="0.5" />
  <circle cx="580" cy="150" r="1.5" fill="#FBD065" opacity="0.7" />
  <circle cx="300" cy="350" r="1" fill="#FFF" opacity="0.3" />
  <circle cx="600" cy="450" r="2" fill="#FFF" opacity="0.6" />
  <circle cx="220" cy="450" r="2" fill="#FBD065" opacity="0.6" />

  <!-- Isometric Ground Shadow -->
  <polygon points="322,525 442,595 650,715 728,670 608,600 530,645" fill="#5A3A42" opacity="0.3" />

  <!-- Layer 1: Left Pillar Inner Wall (Backdrop of the Hole) -->
  <polygon points="374,495 452,450 452,210 374,255" fill="#14353E" stroke="#14353E" stroke-width="1" stroke-linejoin="round" />

  <!-- Layer 2: Golden Keyhole & Eye (Suspended on the backdrop) -->
  <g id="keyhole">
    <path d="M 413 342 A 18 18 0 1 0 399 371 L 391 405 L 435 405 L 427 371 A 18 18 0 0 0 413 342 Z" fill="#FBD065" />
    <path d="M 401 360 Q 413 350 425 360 Q 413 370 401 360 Z" fill="#14353E" />
    <circle cx="413" cy="360" r="5" fill="#FBD065" />
  </g>

  <!-- Layer 3: Bottom Bridge Top Face -->
  <polygon points="374,495 452,450 530,495 452,540" fill="#98D4C8" stroke="#98D4C8" stroke-width="1" stroke-linejoin="round" />

  <!-- Layer 4: Left Pillar Front Face -->
  <polygon points="322,525 374,555 374,255 322,225" fill="#367C80" stroke="#367C80" stroke-width="1" stroke-linejoin="round" />

  <!-- Layer 5: Bottom Bridge Front Face -->
  <polygon points="374,555 452,600 452,540 374,495" fill="#367C80" stroke="#367C80" stroke-width="1" stroke-linejoin="round" />

  <!-- Doorway Arch in Bottom Bridge -->
  <polygon points="403,572 403,545 413,535 423,550 423,583 413,578" fill="#14353E" stroke="#14353E" stroke-width="1" stroke-linejoin="round" />

  <!-- Layer 6: Right Pillar Front Face -->
  <polygon points="452,600 530,645 530,345 452,300" fill="#367C80" stroke="#367C80" stroke-width="1" stroke-linejoin="round" />

  <!-- Layer 7: Impossible Bridge Front Face (Connecting Front Left to Back Right) -->
  <polygon points="322,225 478,225 530,255 374,255" fill="#367C80" stroke="#367C80" stroke-width="1" stroke-linejoin="round" />

  <!-- Layer 8: Impossible Bridge Top Face -->
  <polygon points="322,225 400,180 556,180 478,225" fill="#98D4C8" stroke="#98D4C8" stroke-width="1" stroke-linejoin="round" />

  <!-- Layer 9: Right Pillar Outer Face -->
  <polygon points="530,645 608,600 608,300 530,345" fill="#19404B" stroke="#19404B" stroke-width="1" stroke-linejoin="round" />

  <!-- Layer 10: Right Pillar Top Face (Tucked seamlessly under the Impossible Bridge) -->
  <polygon points="452,300 530,345 608,300 530,255" fill="#98D4C8" stroke="#98D4C8" stroke-width="1" stroke-linejoin="round" />

  <!-- Glowing Runes -->
  <g id="runes" stroke="#FBD065" stroke-width="2" fill="none" opacity="0.8" stroke-linecap="round" stroke-linejoin="round">
    <path d="M 342 390 L 354 395 M 348 392 L 348 408 L 340 404" />
    <path d="M 485 475 L 497 480 L 491 490 Z" />
    <line x1="491" y1="477" x2="491" y2="495" />
    <circle cx="426" cy="240" r="4" stroke-width="1.5" />
    <line x1="418" y1="240" x2="434" y2="240" stroke-width="1.5" />
  </g>

  <!-- Stylized Figure on the Bridge -->
  <g id="figure">
    <path d="M 436 195 L 444 195 L 440 170 Z" fill="#102830" />
    <circle cx="440" cy="164" r="4" fill="#102830" />
    <path d="M 438 195 L 436 205 L 439 205 L 440 195 Z" fill="#102830" />
    <path d="M 442 195 L 444 203 L 447 203 L 443 195 Z" fill="#102830" />
    <path d="M 440 170 L 448 185 L 440 185 Z" fill="#FBD065" opacity="0.9" />
  </g>

  <!-- Low Poly Abstract Birds -->
  <path d="M 270 300 L 280 305 L 290 295 L 280 308 Z" fill="#FFF" opacity="0.6" />
  <path d="M 540 200 L 550 205 L 560 195 L 550 208 Z" fill="#FFF" opacity="0.4" />
</svg>
